<?xml version="1.0" standalone="no"?>
<!DOCTYPE svg PUBLIC "-//W3C//DTD SVG 20010904//EN"
 "http://www.w3.org/TR/2001/REC-SVG-20010904/DTD/svg10.dtd">
<svg version="1.0" xmlns="http://www.w3.org/2000/svg"
 width="700.000000pt" height="700.000000pt" viewBox="0 0 700.000000 700.000000"
 preserveAspectRatio="xMidYMid meet">
<metadata>
Created by potrace 1.14, written by Peter Selinger 2001-2017
</metadata>
<g transform="translate(0.000000,700.000000) scale(0.100000,-0.100000)"
fill="#000000" stroke="none">
<path d="M0 3500 l0 -3500 3500 0 3500 0 0 3500 0 3500 -3500 0 -3500 0 0
-3500z m6659 3294 l61 -7 0 -3048 0 -3049 -75 0 c-43 0 -75 4 -75 10 0 7 -630
10 -1870 10 l-1870 0 0 75 0 75 1870 0 1870 0 0 2890 0 2890 -3035 0 -3035 0
-2 -1387 -3 -1388 -75 0 -75 0 -3 1468 -2 1467 3128 0 c1721 0 3157 -3 3191
-6z m-4925 -4086 c163 -486 311 -928 329 -982 l33 -100 137 405 c76 222 224
663 330 979 l192 575 443 3 c396 2 443 1 440 -13 -2 -9 -250 -616 -553 -1350
l-550 -1335 -439 3 -438 2 -543 1327 c-299 729 -546 1336 -550 1347 l-6 21
439 0 440 0 296 -882z m1977 -463 c34 -18 42 -30 34 -54 -9 -31 -62 -46 -160
-46 -106 0 -148 16 -153 57 -4 31 15 44 81 58 54 12 162 3 198 -15z m659 15
c142 -27 110 -108 -45 -118 -139 -9 -232 47 -159 94 46 31 122 40 204 24z
m-650 -550 l0 -320 -135 0 -135 0 0 320 0 320 135 0 135 0 0 -320z m720 -56
c0 -416 1 -407 -65 -453 -72 -49 -258 -78 -422 -65 l-93 6 0 44 0 44 104 0
c112 0 161 11 189 42 15 18 17 52 17 389 l0 369 135 0 135 0 0 -376z m710 151
l0 -224 31 -36 c48 -54 112 -69 289 -68 160 1 266 18 340 56 l45 23 3 237 2
237 140 0 140 0 0 -320 0 -320 -129 0 -129 0 -7 30 c-4 17 -7 30 -8 30 -1 0
-31 -10 -67 -21 -255 -80 -701 -59 -838 41 -80 58 -82 64 -82 328 l0 232 135
0 135 0 0 -225z"/>
</g>
</svg>
